<?xml version="1.0" encoding="iso-8859-1"?>
<!-- Generator: Adobe Illustrator 18.0.0, SVG Export Plug-In . SVG Version: 6.00 Build 0)  -->
<!DOCTYPE svg PUBLIC "-//W3C//DTD SVG 1.1//EN" "http://www.w3.org/Graphics/SVG/1.1/DTD/svg11.dtd">
<svg version="1.1" id="Capa_1" xmlns="http://www.w3.org/2000/svg" xmlns:xlink="http://www.w3.org/1999/xlink" x="0px" y="0px"
	 viewBox="0 0 297.5 297.5" style="enable-background:new 0 0 297.5 297.5;" xml:space="preserve">
<g id="XMLID_41_">
	<g>
		<path style="fill:#E67E22;" d="M259.08,64.3v68.75h-10.31c2.18-10.47,0.73-21.11-4.39-31.34c-1.56-3.13-4.58-5.27-8.05-5.7
			c-23.76-2.97-47.86-2.97-71.62,0c-3.47,0.43-6.49,2.57-8.06,5.7c-5.11,10.23-6.56,20.87-4.38,31.34h-7.03
			c2.17-10.47,0.73-21.11-4.39-31.34c-1.56-3.13-4.59-5.27-8.06-5.7c-23.76-2.97-47.85-2.97-71.61,0c-3.47,0.43-6.49,2.57-8.06,5.7
			c-5.11,10.23-6.56,20.87-4.38,31.34H38.42V64.3C109.84,36.56,187.67,36.56,259.08,64.3z"/>
		<path style="fill:#D5C295;" d="M124.18,116.08c1.58,5.08,1.58,10.04,0,15.12c-18.07,1.84-36.31,1.84-54.39,0
			c-1.57-5.08-1.57-10.04,0-15.12C87.87,114.23,106.11,114.23,124.18,116.08z"/>
		<path style="fill:#D5C295;" d="M227.71,116.08c1.58,5.08,1.58,10.04,0,15.12c-18.07,1.84-36.31,1.84-54.39,0
			c-1.57-5.08-1.57-10.04,0-15.12C191.4,114.23,209.64,114.23,227.71,116.08z"/>
		<rect x="21.17" y="153.97" style="fill:#A38671;" width="255.17" height="48.1"/>
		<path d="M297.25,143.51v120.78c0,5.78-4.68,10.46-10.45,10.46c-5.78,0-10.46-4.68-10.46-10.46v-41.3H21.17v41.3
			c0,5.78-4.68,10.46-10.46,10.46c-5.77,0-10.46-4.68-10.46-10.46V143.51c0-5.78,4.69-10.46,10.46-10.46h6.8V57.23
			c0-4.23,2.55-8.04,6.45-9.66c39.77-16.47,81.75-24.82,124.79-24.82s85.03,8.35,124.79,24.82c3.91,1.62,6.46,5.43,6.46,9.66v75.82
			h6.8C292.57,133.05,297.25,137.73,297.25,143.51z M276.34,202.07v-48.1H21.17v48.1H276.34z M259.08,133.05V64.3
			c-71.41-27.74-149.24-27.74-220.66,0v68.75h10.32c-2.18-10.47-0.73-21.11,4.38-31.34c1.57-3.13,4.59-5.27,8.06-5.7
			c23.76-2.97,47.85-2.97,71.61,0c3.47,0.43,6.5,2.57,8.06,5.7c5.12,10.23,6.56,20.87,4.39,31.34h7.03
			c-2.18-10.47-0.73-21.11,4.38-31.34c1.57-3.13,4.59-5.27,8.06-5.7c23.76-2.97,47.86-2.97,71.62,0c3.47,0.43,6.49,2.57,8.05,5.7
			c5.12,10.23,6.57,20.87,4.39,31.34H259.08z M227.71,131.2c1.58-5.08,1.58-10.04,0-15.12c-18.07-1.85-36.31-1.85-54.39,0
			c-1.57,5.08-1.57,10.04,0,15.12C191.4,133.04,209.64,133.04,227.71,131.2z M124.18,131.2c1.58-5.08,1.58-10.04,0-15.12
			c-18.07-1.85-36.31-1.85-54.39,0c-1.57,5.08-1.57,10.04,0,15.12C87.87,133.04,106.11,133.04,124.18,131.2z"/>
	</g>
	<g>
	</g>
</g>
<g>
</g>
<g>
</g>
<g>
</g>
<g>
</g>
<g>
</g>
<g>
</g>
<g>
</g>
<g>
</g>
<g>
</g>
<g>
</g>
<g>
</g>
<g>
</g>
<g>
</g>
<g>
</g>
<g>
</g>
</svg>
